<svg xmlns="http://www.w3.org/2000/svg" width="15.308" height="14.089" viewBox="0 0 15.308 14.089">
  <path id="basket-svgrepo-com" d="M69.334,68.881H66.89l-3.478-4.637a.61.61,0,0,0-.976,0l-3.478,4.637H56.513a1.242,1.242,0,0,0-1.244,1.237,1.155,1.155,0,0,0,.05.343l1.764,6.221a1.934,1.934,0,0,0,1.862,1.407H66.9a1.953,1.953,0,0,0,1.868-1.406l1.767-6.229a.594.594,0,0,0,.018-.09l.02-.188a.5.5,0,0,0,0-.059A1.242,1.242,0,0,0,69.334,68.881Zm-6.41-3.254,2.44,3.254H60.483Zm0,9.342a1.438,1.438,0,1,1,1.444-1.438,1.438,1.438,0,0,1-1.444,1.438Z" transform="translate(-55.269 -64)" fill="#fff"/>
</svg>
